<svg class="tds-icon tds-icon-message cua-chat--chat-icon__icon" viewBox="0 0 24 24" xmlns="http://www.w3.org/2000/svg"><path fill="currentColor" d="M19.5 4h-15A2.5 2.5 0 0 0 2 6.5v9A2.5 2.5 0 0 0 4.5 18H7v2.07a.928.928 0 0 0 1.507.725l3.22-2.576A1 1 0 0 1 12.35 18h7.15a2.5 2.5 0 0 0 2.5-2.5v-9A2.5 2.5 0 0 0 19.5 4m1 11.5a1 1 0 0 1-1 1h-7.15a2.5 2.5 0 0 0-1.56.548L8.5 18.879V17a.5.5 0 0 0-.5-.5H4.5a1 1 0 0 1-1-1v-9a1 1 0 0 1 1-1h15c.551 0 1 .449 1 1zM9 11a1 1 0 1 1-2 0 1 1 0 0 1 2 0m4 0a1 1 0 1 1-2 0 1 1 0 0 1 2 0m4 0a1 1 0 1 1-2 0 1 1 0 0 1 2 0"></path></svg>